<?xml version="1.0" encoding="utf-8"?>
<!-- Generator: Adobe Illustrator 16.0.4, SVG Export Plug-In . SVG Version: 6.00 Build 0)  -->
<!DOCTYPE svg PUBLIC "-//W3C//DTD SVG 1.0//EN" "http://www.w3.org/TR/2001/REC-SVG-20010904/DTD/svg10.dtd">
<svg version="1.0" class="social" xmlns="http://www.w3.org/2000/svg" xmlns:xlink="http://www.w3.org/1999/xlink" x="0px" y="0px"
	 width="100px" height="100px" viewBox="0 0 100 100" enable-background="new 0 0 100 100" xml:space="preserve">
<rect id="square" fill="#D8D8D8" width="100" height="100"/>
<path id="twitter_1_" display="none" fill="#FFFFFF" d="M77.877,32.706c-2.051,0.911-4.258,1.525-6.569,1.803
	c2.362-1.416,4.176-3.659,5.028-6.328c-2.212,1.311-4.657,2.26-7.266,2.771c-2.082-2.221-5.058-3.611-8.349-3.611
	c-6.313,0-11.435,5.126-11.435,11.441c0,0.897,0.097,1.767,0.294,2.604c-9.506-0.479-17.932-5.027-23.577-11.955
	c-0.984,1.696-1.549,3.662-1.549,5.759c0,3.962,2.02,7.468,5.089,9.52c-1.874-0.058-3.64-0.576-5.183-1.429v0.141
	c0,5.544,3.942,10.168,9.178,11.218c-0.96,0.269-1.97,0.402-3.015,0.402c-0.737,0-1.456-0.067-2.151-0.202
	c1.454,4.542,5.677,7.852,10.684,7.941c-3.916,3.068-8.848,4.896-14.205,4.896c-0.924,0-1.836-0.052-2.729-0.156
	c5.062,3.243,11.075,5.138,17.534,5.138c21.042,0,32.543-17.429,32.543-32.551c0-0.496-0.01-0.991-0.03-1.479
	C74.405,37.014,76.348,35.001,77.877,32.706"/>
<path id="facebook_1_" fill="#FFFFFF" d="M35.959,40.223h6.034v-5.865c0-2.588,0.065-6.576,1.944-9.046
	c1.979-2.618,4.696-4.397,9.369-4.397c7.611,0,10.818,1.086,10.818,1.086l-1.508,8.942c0,0-2.518-0.728-4.862-0.728
	c-2.351,0-4.448,0.842-4.448,3.188v6.821h9.623l-0.673,8.734h-8.95v30.342H41.994V48.957h-6.034V40.223z"/>
<path id="youtube" display="none" fill="#FFFFFF" d="M60.825,50.137L41.487,61.494V38.776L60.825,50.137z M78.886,60.667V39.546
	c0,0,0-10.181-10.179-10.181h-38.71c0,0-10.173,0-10.173,10.181v21.121c0,0,0,10.181,10.173,10.181h38.71
	C68.707,70.848,78.886,70.848,78.886,60.667"/>
<rect id="webbox" x="20" y="29" display="none" fill="#FFFFFF" width="59" height="42"/>
<text transform="matrix(1 0 0 1 29.457 54.5156)" display="none" fill="#D8D8D8" font-family="'OpenSans-Bold'" font-size="16">www</text>
</svg>
