<?xml version="1.0" encoding="utf-8"?>
<!-- Generator: Adobe Illustrator 16.0.4, SVG Export Plug-In . SVG Version: 6.00 Build 0)  -->
<!DOCTYPE svg PUBLIC "-//W3C//DTD SVG 1.0//EN" "http://www.w3.org/TR/2001/REC-SVG-20010904/DTD/svg10.dtd">
<svg version="1.0" class="social" xmlns="http://www.w3.org/2000/svg" xmlns:xlink="http://www.w3.org/1999/xlink" x="0px" y="0px"
	 width="100px" height="100px" viewBox="0 0 100 100" enable-background="new 0 0 100 100" xml:space="preserve">
<rect id="square" fill="#D8D8D8" width="100" height="100"/>
<path id="twitter" fill="#FFFFFF" d="M77.877,32.706c-2.051,0.911-4.258,1.525-6.569,1.803c2.362-1.416,4.176-3.659,5.028-6.328
	c-2.212,1.311-4.657,2.26-7.266,2.771c-2.082-2.221-5.058-3.611-8.349-3.611c-6.313,0-11.435,5.126-11.435,11.441
	c0,0.897,0.097,1.767,0.294,2.604c-9.506-0.479-17.932-5.027-23.577-11.955c-0.984,1.696-1.549,3.662-1.549,5.759
	c0,3.962,2.02,7.468,5.089,9.52c-1.874-0.058-3.64-0.576-5.183-1.429v0.141c0,5.544,3.942,10.168,9.178,11.218
	c-0.96,0.269-1.97,0.402-3.015,0.402c-0.737,0-1.456-0.067-2.151-0.202c1.454,4.542,5.677,7.852,10.684,7.941
	c-3.916,3.068-8.848,4.896-14.205,4.896c-0.924,0-1.836-0.052-2.729-0.156c5.062,3.243,11.075,5.138,17.534,5.138
	c21.042,0,32.543-17.429,32.543-32.551c0-0.496-0.01-0.991-0.03-1.479C74.405,37.014,76.348,35.001,77.877,32.706"/>
</svg>
